<?xml version="1.0" encoding="utf-8"?>
<!-- Generator: Adobe Illustrator 26.5.0, SVG Export Plug-In . SVG Version: 6.00 Build 0)  -->
<svg version="1.1" id="Capa_2" xmlns="http://www.w3.org/2000/svg" xmlns:xlink="http://www.w3.org/1999/xlink" x="0px" y="0px"
	 viewBox="0 0 472.13 269.49" style="enable-background:new 0 0 472.13 269.49;" xml:space="preserve">
<style type="text/css">
	.st0{fill:#7455A4;}
	.st1{fill:#7F58A4;}
	.st2{fill:#FED73C;}
	.st3{fill:#F8981D;stroke:#FCB523;stroke-width:5;stroke-miterlimit:10;}
	.st4{fill:#FFD73E;}
	.st5{fill:#FCB028;}
	.st6{fill:none;stroke:#F5A2C6;stroke-width:3;stroke-miterlimit:10;}
	.st7{fill:none;stroke:#AE93C5;stroke-width:3;stroke-miterlimit:10;}
	.st8{fill:none;stroke:#87C8EE;stroke-width:3;stroke-miterlimit:10;}
	.st9{fill:none;stroke:#81C893;stroke-width:3;stroke-miterlimit:10;}
	.st10{fill:#FDE385;}
	.st11{fill:#81C893;}
	.st12{fill:#87C8EE;}
	.st13{fill:#F5A2C6;}
	.st14{fill:none;stroke:#87C8EE;stroke-width:3;stroke-linecap:round;stroke-miterlimit:10;}
	.st15{fill:none;stroke:#F5A2C6;stroke-width:3;stroke-linecap:round;stroke-miterlimit:10;}
	.st16{fill:#87C8EE;stroke:#FDE385;stroke-width:3;stroke-linecap:round;stroke-miterlimit:10;}
	.st17{fill:none;stroke:#AE93C5;stroke-width:3;stroke-linecap:round;stroke-miterlimit:10;}
</style>
<g>
	<path class="st0" d="M282.74,229.12l-44.13-19.18c-0.65-0.28-1.4-0.28-2.05,0l-44.13,19.18c-1.7,0.74-3.6-0.51-3.6-2.36v-61.18
		h97.51v61.18C286.34,228.61,284.44,229.85,282.74,229.12z"/>
	<path class="st1" d="M267.38,244.59l-28.53-13.77c-0.65-0.31-1.4-0.31-2.05-0.01l-29.03,13.81c-1.57,0.75-3.38-0.4-3.38-2.14
		v-76.91h66.38v76.89C270.78,244.21,268.95,245.35,267.38,244.59z"/>
	<circle class="st2" cx="237.59" cy="109.09" r="80.23"/>
	<ellipse class="st3" cx="237.59" cy="109.09" rx="65.31" ry="67.4"/>
	<path class="st4" d="M184.71,108c0.23-4.93,7.48-13.36,9.74-17.74c2.04-3.96,1.08-14.07,4.09-17.36
		c3.63-3.97,15.45-4.75,20.43-6.81c4.75-1.97,13.25-9.24,18.38-9.19c5.82,0.05,15.32,8.49,20.77,10.55
		c4.44,1.68,15.24,1.21,18.38,4.77c3.42,3.86,2.88,15.53,4.72,20.34c1.78,4.65,8.92,11.56,9.23,16.53
		c0.34,5.41-7.88,14.26-9.87,19.3c-1.82,4.61-1.96,15.54-5.45,19.06c-3.81,3.84-15.74,4.11-20.77,6.13
		c-4.49,1.8-12.36,8.85-17.19,8.85c-5.79,0.01-15.23-8.39-20.6-10.55c-4.12-1.66-13.92-1.93-17.02-5.11
		c-3.58-3.66-3.23-15.13-5.45-19.74C191.68,121.94,184.45,113.63,184.71,108z"/>
	<path class="st5" d="M240.42,85.19l5.65,11.46c0.46,0.93,1.35,1.58,2.38,1.73l12.64,1.84c2.59,0.38,3.62,3.56,1.75,5.39l-9.15,8.92
		c-0.74,0.73-1.08,1.77-0.91,2.79l2.16,12.59c0.44,2.58-2.26,4.55-4.58,3.33l-11.31-5.95c-0.92-0.48-2.02-0.48-2.94,0l-11.31,5.95
		c-2.32,1.22-5.02-0.75-4.58-3.33l2.16-12.59c0.18-1.02-0.16-2.07-0.91-2.79l-9.15-8.92c-1.87-1.83-0.84-5.01,1.75-5.39l12.64-1.84
		c1.03-0.15,1.92-0.8,2.38-1.73l5.65-11.46C235.91,82.85,239.26,82.85,240.42,85.19z"/>
</g>
<circle class="st6" cx="357.96" cy="61.95" r="8.16"/>
<circle class="st7" cx="451.93" cy="145.69" r="8.16"/>
<circle class="st8" cx="95.54" cy="54.79" r="8.16"/>
<circle class="st9" cx="14.62" cy="167.53" r="8.16"/>
<path class="st10" d="M421.81,101.72l-4.75,4.75c-0.93,0.93-2.43,0.93-3.35,0l-4.75-4.75c-0.93-0.93-0.93-2.43,0-3.35l4.75-4.75
	c0.93-0.93,2.43-0.93,3.35,0l4.75,4.75C422.74,99.29,422.74,100.79,421.81,101.72z"/>
<path class="st11" d="M333.43,191.6h-6.71c-1.31,0-2.37-1.06-2.37-2.37v-6.71c0-1.31,1.06-2.37,2.37-2.37h6.71
	c1.31,0,2.37,1.06,2.37,2.37v6.71C335.8,190.53,334.74,191.6,333.43,191.6z"/>
<path class="st12" d="M78.74,208.23L74,212.98c-0.93,0.93-2.43,0.93-3.35,0l-4.75-4.75c-0.93-0.93-0.93-2.43,0-3.35l4.75-4.75
	c0.93-0.93,2.43-0.93,3.35,0l4.75,4.75C79.67,205.8,79.67,207.3,78.74,208.23z"/>
<path class="st13" d="M105.63,138.33h-6.71c-1.31,0-2.37-1.06-2.37-2.37v-6.71c0-1.31,1.06-2.37,2.37-2.37h6.71
	c1.31,0,2.37,1.06,2.37,2.37v6.71C108,137.27,106.94,138.33,105.63,138.33z"/>
<g>
	<line class="st14" x1="376.23" y1="133.62" x2="376.23" y2="140.11"/>
	<line class="st14" x1="376.23" y1="153.62" x2="376.23" y2="160.11"/>
	<line class="st14" x1="387.34" y1="139.64" x2="381.89" y2="143.18"/>
	<line class="st14" x1="370.56" y1="150.53" x2="365.11" y2="154.07"/>
	<line class="st14" x1="387.82" y1="153.21" x2="382.14" y2="150.07"/>
	<line class="st14" x1="370.31" y1="143.53" x2="364.63" y2="140.39"/>
</g>
<g>
	<line class="st15" x1="396.21" y1="198.45" x2="396.21" y2="204.94"/>
	<line class="st15" x1="396.21" y1="218.46" x2="396.21" y2="224.95"/>
	<line class="st15" x1="407.32" y1="204.48" x2="401.87" y2="208.01"/>
	<line class="st15" x1="390.54" y1="215.37" x2="385.09" y2="218.9"/>
	<line class="st15" x1="407.8" y1="218.04" x2="402.12" y2="214.9"/>
	<line class="st15" x1="390.29" y1="208.36" x2="384.61" y2="205.22"/>
</g>
<g>
	<line class="st16" x1="45.55" y1="94.14" x2="45.55" y2="100.63"/>
	<line class="st16" x1="45.55" y1="114.15" x2="45.55" y2="120.64"/>
	<line class="st16" x1="56.66" y1="100.17" x2="51.22" y2="103.7"/>
	<line class="st16" x1="39.88" y1="111.06" x2="34.44" y2="114.59"/>
	<line class="st16" x1="57.15" y1="113.73" x2="51.46" y2="110.59"/>
	<line class="st16" x1="39.64" y1="104.05" x2="33.96" y2="100.91"/>
</g>
<g>
	<line class="st17" x1="128.72" y1="157.35" x2="128.72" y2="163.84"/>
	<line class="st17" x1="128.72" y1="177.36" x2="128.72" y2="183.85"/>
	<line class="st17" x1="139.83" y1="163.38" x2="134.39" y2="166.91"/>
	<line class="st17" x1="123.06" y1="174.27" x2="117.61" y2="177.8"/>
	<line class="st17" x1="140.32" y1="176.94" x2="134.64" y2="173.8"/>
	<line class="st17" x1="122.81" y1="167.26" x2="117.13" y2="164.12"/>
</g>
</svg>
