<?xml version="1.0" encoding="utf-8"?>
<!-- Generator: Adobe Illustrator 26.3.1, SVG Export Plug-In . SVG Version: 6.00 Build 0)  -->
<svg version="1.1" id="Capa_1" xmlns="http://www.w3.org/2000/svg" xmlns:xlink="http://www.w3.org/1999/xlink" x="0px" y="0px"
	 viewBox="0 0 276.98 108.69" style="enable-background:new 0 0 276.98 108.69;" xml:space="preserve">
<style type="text/css">
	.st0{fill:#FFFFFF;}
	.st1{fill:#F5C11B;}
</style>
<g>
	<polygon class="st0" points="43.01,63.93 43.01,77.12 7.04,77.12 7.04,21.95 42.34,21.95 42.34,35.08 22.17,35.08 22.17,43.21 
		40.3,43.21 40.3,55.67 22.17,55.67 22.17,63.93 	"/>
	<g>
		<path class="st0" d="M87.13,41.91c0-3.92-2.64-6.69-6.64-6.69h-6.43v13.39h6.43C84.49,48.61,87.13,45.83,87.13,41.91
			 M102.75,41.88c0,11.57-8.71,20-20.44,20h-8.26v15.24H58.82V21.95h23.49C94.04,21.95,102.75,30.31,102.75,41.88"/>
		<path class="st0" d="M176.39,78.51c-16.79,0-29.33-12.43-29.33-28.93c0-16.59,12.54-29.03,29.33-29.03
			c14.46,0,25.66,9.54,27.9,23.53h-15.4c-1.89-5.66-6.66-9.33-12.47-9.33c-7.81,0-13.54,6.28-13.54,14.82
			c0,8.51,5.73,14.7,13.54,14.7c6.12,0,10.93-3.99,12.48-10.12h15.55C202.35,68.66,191.08,78.51,176.39,78.51L176.39,78.51z"/>
	</g>
	<path class="st0" d="M240.35,39.17l-6.05,17.1h12.14L240.35,39.17z M250.15,68.16H230.6l-3.06,8.96h-16.29l21.67-55.17h14.86
		l22.15,55.17h-16.74L250.15,68.16z"/>
	<rect x="8.64" y="89.87" class="st0" width="1.2" height="11.77"/>
	<polygon class="st0" points="35.4,99.84 35.44,99.84 35.44,89.87 36.63,89.87 36.63,101.64 35.14,101.64 28.12,91.56 28.09,91.56 
		28.09,101.64 26.89,101.64 26.89,89.87 28.39,89.87 	"/>
	<polygon class="st0" points="59.49,99.44 63.47,89.87 65.29,89.87 65.29,101.64 64.1,101.64 64.1,91.46 64.06,91.46 59.81,101.64 
		59.18,101.64 54.92,91.46 54.89,91.46 54.89,101.64 53.69,101.64 53.69,89.87 55.52,89.87 	"/>
	<g>
		<path class="st0" d="M92.53,95.75c0-0.68-0.11-1.32-0.33-1.94c-0.22-0.61-0.54-1.15-0.96-1.62c-0.42-0.46-0.92-0.84-1.52-1.11
			c-0.6-0.28-1.28-0.42-2.03-0.42s-1.43,0.14-2.03,0.42s-1.11,0.65-1.52,1.11c-0.42,0.47-0.73,1.01-0.96,1.62
			c-0.22,0.62-0.33,1.26-0.33,1.94s0.11,1.32,0.33,1.94c0.22,0.61,0.54,1.15,0.96,1.62c0.42,0.46,0.92,0.84,1.52,1.11
			c0.6,0.28,1.27,0.41,2.03,0.41c0.75,0,1.43-0.14,2.03-0.41c0.6-0.28,1.1-0.65,1.52-1.11c0.41-0.47,0.73-1.01,0.96-1.62
			C92.41,97.07,92.53,96.43,92.53,95.75 M93.82,95.75c0,0.9-0.16,1.72-0.47,2.48c-0.31,0.75-0.74,1.4-1.29,1.95
			c-0.55,0.55-1.2,0.98-1.94,1.29c-0.75,0.31-1.56,0.46-2.44,0.46c-0.88,0-1.69-0.15-2.44-0.46s-1.4-0.74-1.95-1.29
			c-0.55-0.55-0.98-1.2-1.29-1.95s-0.46-1.58-0.46-2.48s0.16-1.72,0.46-2.48c0.31-0.75,0.74-1.4,1.29-1.95
			c0.55-0.55,1.2-0.98,1.95-1.29s1.56-0.46,2.44-0.46c0.88,0,1.69,0.15,2.44,0.46s1.4,0.74,1.94,1.29c0.55,0.55,0.98,1.2,1.29,1.95
			C93.67,94.03,93.82,94.86,93.82,95.75"/>
		<path class="st0" d="M111.28,100.54h2.29c0.43,0,0.84-0.04,1.21-0.13c0.38-0.09,0.7-0.22,0.98-0.41c0.28-0.18,0.5-0.41,0.66-0.69
			s0.24-0.61,0.24-1c0-0.78-0.25-1.35-0.75-1.73c-0.5-0.38-1.23-0.57-2.19-0.57h-2.44C111.28,96.01,111.28,100.54,111.28,100.54z
			 M111.28,95.02h2.41c0.29,0,0.57-0.04,0.86-0.11c0.28-0.07,0.54-0.19,0.77-0.36c0.23-0.17,0.41-0.38,0.56-0.64
			c0.14-0.26,0.22-0.58,0.22-0.96c0-0.12-0.02-0.29-0.07-0.51s-0.16-0.44-0.33-0.67c-0.17-0.22-0.42-0.41-0.76-0.57
			c-0.33-0.16-0.78-0.24-1.35-0.24h-2.29v4.06H111.28z M110.08,89.87h3.51c0.49,0,0.96,0.05,1.41,0.15c0.45,0.1,0.86,0.27,1.21,0.5
			c0.36,0.23,0.64,0.54,0.85,0.92c0.21,0.38,0.32,0.84,0.32,1.4c0,0.64-0.18,1.19-0.54,1.65s-0.87,0.77-1.54,0.92v0.03
			c0.83,0.07,1.48,0.36,1.95,0.87s0.71,1.2,0.71,2.07c0,0.19-0.05,0.47-0.14,0.83c-0.09,0.37-0.29,0.73-0.59,1.09
			c-0.3,0.36-0.73,0.67-1.3,0.94c-0.56,0.27-1.32,0.4-2.26,0.4h-3.59L110.08,89.87L110.08,89.87z"/>
	</g>
	<rect x="134.42" y="89.87" class="st0" width="1.2" height="11.77"/>
	<polygon class="st0" points="153.87,100.54 159.36,100.54 159.36,101.64 152.67,101.64 152.67,89.87 153.87,89.87 	"/>
	<rect x="174.85" y="89.87" class="st0" width="1.2" height="11.77"/>
	<path class="st0" d="M194.65,97.45h5.1l-2.54-6.19L194.65,97.45z M192.9,101.64h-1.4l5.12-11.77h1.16l5.12,11.77h-1.4l-1.3-3.09
		h-6.02L192.9,101.64z"/>
	<path class="st0" d="M219.57,95.07h2.13c0.53,0,0.98-0.06,1.36-0.17c0.37-0.11,0.67-0.26,0.89-0.44s0.38-0.4,0.48-0.65
		c0.1-0.25,0.15-0.52,0.15-0.81c0-0.28-0.05-0.54-0.15-0.79c-0.1-0.25-0.26-0.47-0.48-0.66s-0.52-0.34-0.89-0.44
		c-0.37-0.11-0.82-0.16-1.36-0.16h-2.13V95.07z M219.57,101.64h-1.2V89.87h3.62c1.2,0,2.14,0.26,2.83,0.78s1.04,1.31,1.04,2.36
		c0,0.82-0.26,1.51-0.77,2.07c-0.51,0.56-1.26,0.88-2.24,0.97l3.39,5.59h-1.46l-3.23-5.47h-1.99v5.47H219.57z"/>
	<rect x="242.1" y="89.87" class="st0" width="1.2" height="11.77"/>
	<path class="st0" d="M261.9,97.45h5.1l-2.54-6.19L261.9,97.45z M260.15,101.64h-1.4l5.12-11.77h1.16l5.12,11.77h-1.4l-1.3-3.09
		h-6.02L260.15,101.64z"/>
	<polygon class="st1" points="111.72,27.67 111.72,45.73 125.46,33.41 139.21,45.73 139.21,27.67 125.46,15.35 	"/>
	<polygon class="st1" points="111.72,50.61 111.72,56.51 125.46,44.19 139.21,56.51 139.21,50.61 125.46,38.3 	"/>
	<polygon class="st1" points="111.72,61.27 111.72,67.17 125.46,54.85 139.21,67.17 139.21,61.27 125.46,48.96 	"/>
	<polygon class="st1" points="111.72,71.86 111.72,77.76 125.46,65.44 139.21,77.76 139.21,71.86 125.46,59.55 	"/>
	<polygon class="st0" points="26.68,7.04 39.87,7.04 28.69,16.34 20.16,16.34 	"/>
</g>
</svg>
