<?xml version="1.0" encoding="utf-8"?>
<!-- Generator: Adobe Illustrator 26.3.1, SVG Export Plug-In . SVG Version: 6.00 Build 0)  -->
<svg version="1.1" id="Capa_1" xmlns="http://www.w3.org/2000/svg" xmlns:xlink="http://www.w3.org/1999/xlink" x="0px" y="0px"
	 viewBox="0 0 251.05 99.36" style="enable-background:new 0 0 251.05 99.36;" xml:space="preserve">
<style type="text/css">
	.st0{fill:#939598;}
	.st1{fill:#F5C11B;}
</style>
<g>
	<polygon class="st0" points="39.47,58.33 39.47,70.21 7.04,70.21 7.04,20.48 38.86,20.48 38.86,32.32 20.68,32.32 20.68,39.64 
		37.02,39.64 37.02,50.88 20.68,50.88 20.68,58.33 	"/>
	<path class="st0" d="M79.23,38.48c0-3.54-2.38-6.03-5.98-6.03h-5.8v12.07h5.8C76.85,44.51,79.23,42.01,79.23,38.48 M93.31,38.45
		c0,10.43-7.85,18.03-18.42,18.03h-7.44v13.73H53.72V20.48h21.17C85.46,20.48,93.31,28.02,93.31,38.45"/>
	<path class="st0" d="M159.69,71.47c-15.14,0-26.44-11.2-26.44-26.08c0-14.96,11.3-26.16,26.44-26.16c13.03,0,23.13,8.6,25.15,21.21
		h-13.88c-1.71-5.1-6-8.41-11.24-8.41c-7.04,0-12.21,5.66-12.21,13.36c0,7.67,5.16,13.25,12.21,13.25c5.52,0,9.86-3.6,11.25-9.12
		h14.01C183.09,62.59,172.93,71.47,159.69,71.47L159.69,71.47z"/>
	<path class="st0" d="M217.34,36l-5.45,15.41h10.95L217.34,36z M226.18,62.13h-17.63l-2.75,8.08h-14.68l19.54-49.73h13.39
		l19.96,49.73h-15.09L226.18,62.13z"/>
	<rect x="8.48" y="81.7" class="st0" width="1.08" height="10.61"/>
	<polygon class="st0" points="32.61,90.7 32.64,90.7 32.64,81.7 33.72,81.7 33.72,92.31 32.37,92.31 26.05,83.23 26.01,83.23 
		26.01,92.31 24.94,92.31 24.94,81.7 26.28,81.7 	"/>
	<polygon class="st0" points="54.32,90.34 57.9,81.7 59.55,81.7 59.55,92.31 58.47,92.31 58.47,83.14 58.44,83.14 54.61,92.31 
		54.04,92.31 50.2,83.14 50.17,83.14 50.17,92.31 49.09,92.31 49.09,81.7 50.74,81.7 	"/>
	<path class="st0" d="M84.1,87.01c0-0.61-0.1-1.19-0.3-1.75c-0.2-0.55-0.49-1.04-0.86-1.46c-0.38-0.42-0.83-0.76-1.37-1.01
		c-0.54-0.25-1.15-0.37-1.83-0.37c-0.68,0-1.29,0.12-1.83,0.37c-0.54,0.25-1,0.59-1.37,1.01c-0.38,0.42-0.66,0.91-0.86,1.46
		c-0.2,0.55-0.3,1.14-0.3,1.75c0,0.61,0.1,1.19,0.3,1.75c0.2,0.55,0.49,1.04,0.86,1.46c0.38,0.42,0.83,0.75,1.37,1
		c0.54,0.25,1.15,0.38,1.83,0.38c0.68,0,1.29-0.12,1.83-0.38c0.54-0.25,1-0.59,1.37-1c0.37-0.42,0.66-0.91,0.86-1.46
		C84,88.2,84.1,87.62,84.1,87.01 M85.27,87.01c0,0.81-0.14,1.55-0.42,2.23c-0.28,0.68-0.67,1.27-1.16,1.76
		c-0.49,0.49-1.08,0.88-1.75,1.16c-0.67,0.28-1.41,0.42-2.2,0.42c-0.79,0-1.52-0.14-2.2-0.42c-0.67-0.28-1.26-0.67-1.75-1.16
		c-0.49-0.49-0.88-1.08-1.16-1.76c-0.28-0.68-0.42-1.42-0.42-2.23c0-0.81,0.14-1.55,0.42-2.23c0.28-0.68,0.67-1.27,1.16-1.76
		c0.5-0.49,1.08-0.88,1.75-1.16c0.67-0.28,1.41-0.42,2.2-0.42c0.79,0,1.52,0.14,2.2,0.42c0.67,0.28,1.26,0.67,1.75,1.16
		c0.49,0.49,0.88,1.08,1.16,1.76C85.12,85.46,85.27,86.2,85.27,87.01"/>
	<path class="st0" d="M101,91.33h2.07c0.39,0,0.75-0.04,1.1-0.12c0.34-0.08,0.63-0.2,0.88-0.37c0.25-0.16,0.45-0.37,0.59-0.62
		c0.14-0.25,0.22-0.55,0.22-0.9c0-0.7-0.23-1.22-0.68-1.56s-1.11-0.51-1.98-0.51H101V91.33z M101,86.35h2.17
		c0.26,0,0.52-0.03,0.77-0.1c0.26-0.07,0.49-0.17,0.69-0.32c0.2-0.15,0.37-0.34,0.5-0.58c0.13-0.24,0.19-0.52,0.19-0.86
		c0-0.11-0.02-0.27-0.07-0.46c-0.04-0.2-0.14-0.4-0.3-0.6c-0.16-0.2-0.38-0.37-0.68-0.52c-0.3-0.15-0.7-0.22-1.21-0.22H101V86.35z
		 M99.92,81.7h3.16c0.44,0,0.86,0.05,1.27,0.14c0.41,0.09,0.77,0.24,1.09,0.45c0.32,0.21,0.57,0.48,0.76,0.83
		c0.19,0.34,0.28,0.76,0.28,1.26c0,0.58-0.16,1.08-0.49,1.49c-0.32,0.42-0.79,0.69-1.39,0.83v0.03c0.75,0.06,1.34,0.32,1.76,0.79
		c0.43,0.46,0.64,1.09,0.64,1.87c0,0.17-0.04,0.42-0.13,0.75c-0.08,0.33-0.26,0.66-0.53,0.98c-0.27,0.33-0.66,0.61-1.17,0.85
		c-0.51,0.24-1.19,0.36-2.04,0.36h-3.24V81.7z"/>
	<rect x="121.86" y="81.7" class="st0" width="1.08" height="10.61"/>
	<polygon class="st0" points="139.39,91.32 144.34,91.32 144.34,92.31 138.31,92.31 138.31,81.7 139.39,81.7 	"/>
	<rect x="158.3" y="81.7" class="st0" width="1.08" height="10.61"/>
	<path class="st0" d="M176.15,88.54h4.6l-2.29-5.58L176.15,88.54z M174.57,92.31h-1.26l4.61-10.61h1.05l4.62,10.61h-1.26l-1.17-2.79
		h-5.43L174.57,92.31z"/>
	<path class="st0" d="M198.61,86.39h1.92c0.48,0,0.89-0.05,1.22-0.15c0.33-0.1,0.6-0.23,0.8-0.4c0.2-0.17,0.34-0.36,0.43-0.58
		c0.09-0.23,0.14-0.47,0.14-0.73c0-0.25-0.05-0.49-0.14-0.71c-0.09-0.23-0.23-0.42-0.43-0.59c-0.2-0.17-0.47-0.3-0.8-0.4
		c-0.33-0.1-0.74-0.14-1.22-0.14h-1.92V86.39z M198.61,92.31h-1.08V81.7h3.27c1.08,0,1.93,0.23,2.55,0.7
		c0.62,0.47,0.94,1.18,0.94,2.13c0,0.74-0.23,1.36-0.7,1.86c-0.46,0.51-1.14,0.8-2.02,0.88l3.06,5.03h-1.32l-2.91-4.93h-1.8V92.31z"
		/>
	<rect x="218.92" y="81.7" class="st0" width="1.08" height="10.61"/>
	<path class="st0" d="M236.76,88.54h4.6l-2.29-5.58L236.76,88.54z M235.19,92.31h-1.26l4.61-10.61h1.05l4.62,10.61h-1.26l-1.17-2.79
		h-5.43L235.19,92.31z"/>
	<polygon class="st1" points="101.4,25.64 101.4,41.92 113.79,30.82 126.18,41.92 126.18,25.64 113.79,14.54 	"/>
	<polygon class="st1" points="101.4,46.32 101.4,51.64 113.79,40.54 126.18,51.64 126.18,46.32 113.79,35.22 	"/>
	<polygon class="st1" points="101.4,55.93 101.4,61.24 113.79,50.14 126.18,61.24 126.18,55.93 113.79,44.83 	"/>
	<polygon class="st1" points="101.4,65.47 101.4,70.79 113.79,59.69 126.18,70.79 126.18,65.47 113.79,54.38 	"/>
	<polygon class="st0" points="24.75,7.04 36.63,7.04 26.55,15.43 18.86,15.43 	"/>
	<path class="st0" d="M238.16,27.16h0.71v-1.99h0.91l1.39,1.99h0.76l-1.46-2.04c0.38-0.04,0.69-0.15,0.95-0.34
		c0.26-0.19,0.39-0.5,0.39-0.91c0-0.47-0.15-0.8-0.43-1.02c-0.29-0.21-0.74-0.32-1.35-0.32h-1.86V27.16z M238.87,23.1h1.09
		c0.13,0,0.27,0.01,0.41,0.02c0.14,0.02,0.26,0.05,0.37,0.1c0.11,0.05,0.2,0.12,0.26,0.22c0.07,0.1,0.1,0.22,0.1,0.38
		c0,0.19-0.04,0.33-0.11,0.43c-0.07,0.1-0.18,0.18-0.3,0.23c-0.13,0.05-0.28,0.08-0.44,0.09c-0.16,0.01-0.33,0.02-0.51,0.02h-0.87
		V23.1z M235.74,26.41c0.24,0.48,0.55,0.9,0.95,1.26s0.87,0.63,1.4,0.84c0.53,0.2,1.1,0.31,1.71,0.31c0.6,0,1.16-0.1,1.7-0.31
		c0.54-0.2,1.01-0.49,1.41-0.85c0.4-0.36,0.72-0.78,0.95-1.27s0.35-1.02,0.35-1.6c0-0.57-0.12-1.09-0.35-1.57s-0.55-0.9-0.95-1.26
		c-0.4-0.35-0.87-0.63-1.41-0.84c-0.54-0.2-1.1-0.31-1.7-0.31c-0.6,0-1.17,0.1-1.71,0.31c-0.53,0.2-1,0.49-1.4,0.84
		c-0.4,0.36-0.72,0.78-0.95,1.27c-0.23,0.49-0.35,1.02-0.35,1.6C235.39,25.4,235.5,25.93,235.74,26.41 M236.38,23.46
		c0.19-0.42,0.46-0.78,0.79-1.09c0.34-0.3,0.73-0.54,1.18-0.72c0.45-0.18,0.93-0.26,1.45-0.26c0.52,0,1,0.09,1.45,0.26
		c0.45,0.17,0.84,0.41,1.18,0.71c0.34,0.3,0.6,0.67,0.79,1.08c0.19,0.42,0.29,0.86,0.29,1.34c0,0.49-0.1,0.94-0.29,1.36
		c-0.19,0.42-0.46,0.78-0.79,1.09c-0.34,0.31-0.73,0.55-1.18,0.73c-0.45,0.18-0.93,0.26-1.45,0.26c-0.52,0-1-0.09-1.45-0.26
		c-0.45-0.18-0.84-0.42-1.18-0.72c-0.34-0.3-0.6-0.66-0.79-1.07c-0.19-0.41-0.29-0.86-0.29-1.34
		C236.09,24.34,236.19,23.88,236.38,23.46"/>
</g>
</svg>
